<svg width="900" height="150" viewBox="0 0 900 150" fill="none" xmlns="http://www.w3.org/2000/svg">
<g clip-path="url(#clip0_316_11)">
<path d="M17.7125 122V113.552C19.6752 113.467 21.2965 113.211 22.5765 112.784C23.9418 112.357 24.9658 111.376 25.6485 109.84C26.4165 108.304 26.8005 105.829 26.8005 102.416V53.392C26.8005 51.088 26.8432 48.8693 26.9285 46.736C27.0992 44.6027 27.2272 42.9813 27.3125 41.872C25.9472 41.9573 24.2405 42.0427 22.1925 42.128C20.1445 42.128 18.6512 42.1707 17.7125 42.256V32.4C23.6005 32.3147 29.4885 32.272 35.3765 32.272C41.3498 32.272 47.2805 32.2293 53.1685 32.144C63.4085 32.0587 71.5152 33.9787 77.4885 37.904C83.5472 41.744 86.3632 47.5893 85.9365 55.44C85.7658 57.9147 84.9978 60.3467 83.6325 62.736C82.2672 65.04 80.2192 67.1307 77.4885 69.008C74.8432 70.8853 71.5152 72.3787 67.5045 73.488V73.616C76.0378 74.9813 82.3098 77.84 86.3205 82.192C90.3312 86.4587 92.3365 91.2373 92.3365 96.528C92.3365 102.075 90.9712 106.768 88.2405 110.608C85.5952 114.363 81.9258 117.221 77.2325 119.184C72.5392 121.061 67.2058 122 61.2325 122H17.7125ZM44.8485 112.912C46.3845 112.912 47.8352 112.912 49.2005 112.912C50.5658 112.912 51.9312 112.912 53.2965 112.912C54.6618 112.827 55.9845 112.784 57.2645 112.784C62.4698 112.528 66.2672 110.864 68.6565 107.792C71.0458 104.72 72.2405 100.837 72.2405 96.144C72.2405 92.2187 71.4298 89.1467 69.8085 86.928C68.1872 84.624 66.0965 83.0027 63.5365 82.064C61.0618 81.1253 58.4592 80.656 55.7285 80.656C53.5952 80.656 51.7605 80.656 50.2245 80.656C48.6885 80.656 47.0672 80.6987 45.3605 80.784V101.648C45.3605 103.952 45.3178 106.128 45.2325 108.176C45.1472 110.224 45.0192 111.803 44.8485 112.912ZM45.3605 71.696L52.0165 71.568C55.6005 71.4827 58.4165 70.672 60.4645 69.136C62.5978 67.6 64.0912 65.552 64.9445 62.992C65.8832 60.3467 66.3525 57.488 66.3525 54.416C66.3525 51.0027 65.6698 48.3573 64.3045 46.48C62.9392 44.5173 61.2325 43.1093 59.1845 42.256C57.1365 41.4027 55.0032 41.0187 52.7845 41.104C51.4192 41.104 50.1818 41.3173 49.0725 41.744C47.9632 42.1707 47.0672 43.152 46.3845 44.688C45.7018 46.1387 45.3605 48.528 45.3605 51.856V71.696ZM136.77 122C136.599 120.805 136.471 119.824 136.386 119.056C136.386 118.203 136.343 117.221 136.258 116.112C133.356 119.013 130.284 121.061 127.042 122.256C123.799 123.451 120.514 124.048 117.186 124.048C111.724 124.048 107.458 122.427 104.385 119.184C101.314 115.941 99.7775 111.888 99.7775 107.024C99.7775 102.928 100.802 99.4293 102.85 96.528C104.983 93.6267 107.756 91.28 111.17 89.488C114.668 87.6107 118.508 86.2027 122.69 85.264C126.956 84.24 131.223 83.6427 135.49 83.472V76.816C135.49 74.5973 135.191 72.592 134.594 70.8C134.082 69.008 133.143 67.6 131.778 66.576C130.498 65.552 128.663 65.0827 126.274 65.168C124.652 65.2533 123.074 65.5947 121.538 66.192C120.002 66.7893 118.679 67.6427 117.57 68.752C118.252 69.52 118.679 70.3733 118.85 71.312C119.02 72.1653 119.106 72.9333 119.106 73.616C119.106 75.3227 118.423 77.1147 117.058 78.992C115.692 80.784 113.516 81.6373 110.53 81.552C107.97 81.4667 106.007 80.5707 104.642 78.864C103.276 77.1573 102.594 75.152 102.594 72.848C102.594 69.4347 103.788 66.4907 106.178 64.016C108.652 61.456 111.938 59.4933 116.034 58.128C120.13 56.6773 124.652 55.952 129.602 55.952C137.111 55.952 142.914 57.9147 147.01 61.84C151.191 65.68 153.282 71.8667 153.282 80.4C153.282 83.3013 153.282 85.776 153.282 87.824C153.282 89.872 153.239 91.92 153.154 93.968C153.154 96.016 153.154 98.4907 153.154 101.392C153.154 102.587 153.111 104.293 153.026 106.512C152.94 108.645 152.812 110.693 152.642 112.656C154.092 112.485 155.628 112.4 157.25 112.4C158.871 112.315 160.108 112.272 160.962 112.272V122H136.77ZM135.362 92.56C132.972 92.816 130.711 93.2427 128.578 93.84C126.444 94.4373 124.567 95.248 122.946 96.272C121.41 97.296 120.172 98.5333 119.234 99.984C118.38 101.435 117.954 103.056 117.954 104.848C118.039 107.237 118.807 108.944 120.258 109.968C121.708 110.992 123.372 111.504 125.25 111.504C127.212 111.504 129.047 111.077 130.754 110.224C132.46 109.371 133.996 108.261 135.362 106.896C135.362 106.043 135.362 105.232 135.362 104.464C135.362 103.611 135.362 102.757 135.362 101.904C135.362 100.368 135.362 98.832 135.362 97.296C135.362 95.6747 135.362 94.096 135.362 92.56ZM168.311 113.68C170.7 113.68 172.407 113.211 173.431 112.272C174.455 111.333 175.095 110.011 175.351 108.304C175.692 106.512 175.863 104.507 175.863 102.288V80.784C175.863 79.248 175.905 77.5413 175.991 75.664C176.076 73.7013 176.204 71.7813 176.375 69.904C175.009 69.9893 173.388 70.0747 171.51 70.16C169.719 70.16 168.353 70.2027 167.415 70.288V60.56H172.535C175.863 60.56 178.892 60.1333 181.623 59.28C184.439 58.4267 186.273 57.5733 187.127 56.72H193.399C193.569 57.5733 193.697 59.1947 193.783 61.584C193.868 63.888 193.911 65.936 193.911 67.728C196.215 64.912 198.391 62.6507 200.439 60.944C202.487 59.2373 204.492 58 206.455 57.232C208.503 56.3787 210.551 55.952 212.599 55.952C215.585 55.952 218.188 56.8053 220.407 58.512C222.625 60.1333 223.735 62.8213 223.735 66.576C223.735 67.856 223.436 69.2213 222.839 70.672C222.241 72.0373 221.303 73.1893 220.023 74.128C218.743 75.0667 216.993 75.536 214.775 75.536C213.068 75.536 211.319 75.024 209.527 74C207.735 72.976 206.711 71.0133 206.455 68.112C204.748 68.112 203.041 68.8373 201.335 70.288C199.628 71.6533 198.092 73.3173 196.727 75.28C195.447 77.1573 194.551 78.9067 194.039 80.528V101.392C194.039 102.587 193.996 104.293 193.911 106.512C193.825 108.645 193.697 110.693 193.527 112.656C194.892 112.485 196.385 112.4 198.007 112.4C199.713 112.315 200.993 112.272 201.847 112.272V122H168.311V113.68ZM266.83 113.68C269.219 113.68 270.926 113.211 271.95 112.272C273.059 111.333 273.742 110.011 273.998 108.304C274.339 106.512 274.51 104.507 274.51 102.288L274.382 84.112C274.296 78.5653 273.443 74.4693 271.822 71.824C270.2 69.0933 267.598 67.728 264.014 67.728C261.88 67.728 259.747 68.1973 257.614 69.136C255.566 70.0747 253.816 71.184 252.366 72.464V101.392C252.366 102.587 252.323 104.293 252.238 106.512C252.152 108.645 252.024 110.693 251.854 112.656C253.304 112.485 254.84 112.4 256.462 112.4C258.083 112.315 259.32 112.272 260.174 112.272V122H226.638V113.68C229.027 113.68 230.734 113.211 231.758 112.272C232.867 111.333 233.55 110.011 233.806 108.304C234.062 106.512 234.19 104.507 234.19 102.288V49.68C234.19 48.144 234.232 46.3947 234.318 44.432C234.403 42.384 234.531 40.4213 234.702 38.544C233.336 38.6293 231.715 38.7147 229.838 38.8C228.046 38.8 226.68 38.8427 225.742 38.928V29.2C229.752 29.2 233.08 28.9867 235.726 28.56C238.456 28.1333 240.59 27.6213 242.126 27.024C243.747 26.4267 244.856 25.872 245.454 25.36H252.366V63.12C254.072 61.7547 256.035 60.56 258.254 59.536C260.472 58.4267 262.734 57.5733 265.038 56.976C267.342 56.2933 269.347 55.952 271.054 55.952C278.904 55.952 284.451 58.2133 287.694 62.736C291.022 67.1733 292.686 74.3413 292.686 84.24V101.392C292.686 102.587 292.643 104.293 292.558 106.512C292.472 108.645 292.344 110.693 292.174 112.656C293.539 112.485 295.032 112.4 296.654 112.4C298.275 112.315 299.555 112.272 300.494 112.272V122H266.83V113.68ZM343.77 122C343.599 120.805 343.471 119.824 343.386 119.056C343.386 118.203 343.343 117.221 343.258 116.112C340.356 119.013 337.284 121.061 334.042 122.256C330.799 123.451 327.514 124.048 324.186 124.048C318.724 124.048 314.458 122.427 311.385 119.184C308.314 115.941 306.778 111.888 306.778 107.024C306.778 102.928 307.802 99.4293 309.85 96.528C311.983 93.6267 314.756 91.28 318.17 89.488C321.668 87.6107 325.508 86.2027 329.69 85.264C333.956 84.24 338.223 83.6427 342.49 83.472V76.816C342.49 74.5973 342.191 72.592 341.594 70.8C341.082 69.008 340.143 67.6 338.778 66.576C337.498 65.552 335.663 65.0827 333.274 65.168C331.652 65.2533 330.074 65.5947 328.538 66.192C327.002 66.7893 325.679 67.6427 324.57 68.752C325.252 69.52 325.679 70.3733 325.85 71.312C326.02 72.1653 326.106 72.9333 326.106 73.616C326.106 75.3227 325.423 77.1147 324.058 78.992C322.692 80.784 320.516 81.6373 317.53 81.552C314.97 81.4667 313.007 80.5707 311.642 78.864C310.276 77.1573 309.594 75.152 309.594 72.848C309.594 69.4347 310.788 66.4907 313.178 64.016C315.652 61.456 318.938 59.4933 323.034 58.128C327.13 56.6773 331.652 55.952 336.602 55.952C344.111 55.952 349.914 57.9147 354.01 61.84C358.191 65.68 360.282 71.8667 360.282 80.4C360.282 83.3013 360.282 85.776 360.282 87.824C360.282 89.872 360.239 91.92 360.154 93.968C360.154 96.016 360.154 98.4907 360.154 101.392C360.154 102.587 360.111 104.293 360.026 106.512C359.94 108.645 359.812 110.693 359.642 112.656C361.092 112.485 362.628 112.4 364.25 112.4C365.871 112.315 367.108 112.272 367.962 112.272V122H343.77ZM342.362 92.56C339.972 92.816 337.711 93.2427 335.578 93.84C333.444 94.4373 331.567 95.248 329.946 96.272C328.41 97.296 327.172 98.5333 326.234 99.984C325.38 101.435 324.954 103.056 324.954 104.848C325.039 107.237 325.807 108.944 327.258 109.968C328.708 110.992 330.372 111.504 332.25 111.504C334.212 111.504 336.047 111.077 337.754 110.224C339.46 109.371 340.996 108.261 342.362 106.896C342.362 106.043 342.362 105.232 342.362 104.464C342.362 103.611 342.362 102.757 342.362 101.904C342.362 100.368 342.362 98.832 342.362 97.296C342.362 95.6747 342.362 94.096 342.362 92.56ZM375.311 122V113.68C377.7 113.68 379.407 113.211 380.431 112.272C381.455 111.333 382.095 110.011 382.351 108.304C382.692 106.512 382.863 104.507 382.863 102.288V80.784C382.863 79.248 382.905 77.5413 382.991 75.664C383.076 73.7013 383.204 71.7813 383.375 69.904C382.009 69.9893 380.388 70.0747 378.51 70.16C376.719 70.16 375.353 70.2027 374.415 70.288V60.56C378.34 60.56 381.668 60.3467 384.399 59.92C387.129 59.4933 389.263 58.9813 390.799 58.384C392.42 57.7867 393.529 57.232 394.127 56.72H400.399C400.569 57.5733 400.655 58.64 400.655 59.92C400.74 61.2 400.825 62.2667 400.911 63.12C403.812 60.9013 406.927 59.152 410.255 57.872C413.668 56.592 416.868 55.952 419.855 55.952C423.78 55.952 427.023 56.6773 429.583 58.128C432.143 59.4933 434.191 61.584 435.727 64.4C438.799 61.84 442.169 59.792 445.839 58.256C449.593 56.72 453.177 55.952 456.591 55.952C463.503 55.952 468.708 57.9573 472.207 61.968C475.791 65.8933 477.583 72.7627 477.583 82.576V101.392C477.583 102.587 477.54 104.293 477.455 106.512C477.369 108.645 477.241 110.693 477.071 112.656C478.436 112.485 479.929 112.4 481.551 112.4C483.257 112.315 484.537 112.272 485.391 112.272V122H453.007V113.68C454.969 113.68 456.377 113.211 457.231 112.272C458.169 111.333 458.767 110.011 459.023 108.304C459.279 106.512 459.407 104.507 459.407 102.288V82.704C459.321 77.1573 458.383 73.3173 456.591 71.184C454.884 69.0507 452.58 67.9413 449.679 67.856C447.46 67.7707 445.369 68.1547 443.407 69.008C441.529 69.8613 439.823 70.8853 438.287 72.08C438.713 73.7867 439.012 75.664 439.183 77.712C439.353 79.76 439.439 81.936 439.439 84.24C439.439 87.1413 439.439 90 439.439 92.816C439.439 95.632 439.439 98.4907 439.439 101.392C439.439 102.587 439.396 104.293 439.311 106.512C439.225 108.645 439.097 110.693 438.927 112.656C440.292 112.485 441.785 112.4 443.407 112.4C445.028 112.315 446.308 112.272 447.247 112.272V122H414.223V113.68C416.441 113.68 418.02 113.211 418.959 112.272C419.983 111.333 420.623 110.011 420.879 108.304C421.135 106.512 421.263 104.507 421.263 102.288L421.135 82.32C421.135 76.7733 420.324 72.976 418.703 70.928C417.081 68.88 414.82 67.8133 411.919 67.728C409.785 67.728 407.78 68.1973 405.903 69.136C404.111 70.0747 402.489 71.184 401.039 72.464C401.039 73.5733 401.039 74.64 401.039 75.664C401.039 76.688 401.039 77.7547 401.039 78.864V101.392C401.039 102.587 400.996 104.293 400.911 106.512C400.825 108.645 400.697 110.693 400.527 112.656C401.892 112.485 403.3 112.4 404.751 112.4C406.201 112.315 407.353 112.272 408.207 112.272V122H375.311ZM527.838 122V113.552C529.8 113.467 531.422 113.211 532.702 112.784C534.067 112.357 535.091 111.376 535.774 109.84C536.542 108.304 536.926 105.829 536.926 102.416V53.392C536.926 51.088 536.968 48.8693 537.054 46.736C537.224 44.6027 537.352 42.9813 537.438 41.872C536.072 41.9573 534.366 42.0427 532.318 42.128C530.27 42.128 528.776 42.1707 527.838 42.256V32.4C533.726 32.3147 539.614 32.272 545.502 32.272C551.475 32.272 557.406 32.2293 563.294 32.144C573.534 32.0587 581.64 33.9787 587.614 37.904C593.672 41.744 596.488 47.5893 596.062 55.44C595.891 57.9147 595.123 60.3467 593.757 62.736C592.392 65.04 590.344 67.1307 587.614 69.008C584.968 70.8853 581.64 72.3787 577.63 73.488V73.616C586.163 74.9813 592.435 77.84 596.446 82.192C600.456 86.4587 602.462 91.2373 602.462 96.528C602.462 102.075 601.096 106.768 598.366 110.608C595.72 114.363 592.051 117.221 587.358 119.184C582.664 121.061 577.331 122 571.358 122H527.838ZM554.974 112.912C556.51 112.912 557.96 112.912 559.326 112.912C560.691 112.912 562.056 112.912 563.422 112.912C564.787 112.827 566.11 112.784 567.39 112.784C572.595 112.528 576.392 110.864 578.782 107.792C581.171 104.72 582.366 100.837 582.366 96.144C582.366 92.2187 581.555 89.1467 579.934 86.928C578.312 84.624 576.222 83.0027 573.662 82.064C571.187 81.1253 568.584 80.656 565.854 80.656C563.72 80.656 561.886 80.656 560.35 80.656C558.814 80.656 557.192 80.6987 555.486 80.784V101.648C555.486 103.952 555.443 106.128 555.358 108.176C555.272 110.224 555.144 111.803 554.974 112.912ZM555.486 71.696L562.142 71.568C565.726 71.4827 568.542 70.672 570.59 69.136C572.723 67.6 574.216 65.552 575.07 62.992C576.008 60.3467 576.478 57.488 576.478 54.416C576.478 51.0027 575.795 48.3573 574.43 46.48C573.064 44.5173 571.358 43.1093 569.31 42.256C567.262 41.4027 565.128 41.0187 562.91 41.104C561.544 41.104 560.307 41.3173 559.198 41.744C558.088 42.1707 557.192 43.152 556.51 44.688C555.827 46.1387 555.486 48.528 555.486 51.856V71.696ZM642.671 124.048C636.527 124.048 630.98 122.725 626.031 120.08C621.081 117.435 617.156 113.68 614.255 108.816C611.439 103.867 610.031 98.064 610.031 91.408C610.031 84.3253 611.481 78.1387 614.383 72.848C617.369 67.472 621.295 63.3333 626.159 60.432C631.108 57.4453 636.484 55.952 642.287 55.952C648.431 55.952 653.935 57.2747 658.799 59.92C663.663 62.5653 667.503 66.3627 670.319 71.312C673.135 76.176 674.543 82.0213 674.543 88.848C674.543 96.016 673.177 102.245 670.447 107.536C667.716 112.827 663.961 116.923 659.183 119.824C654.404 122.64 648.9 124.048 642.671 124.048ZM643.183 114.96C646.596 114.875 649.156 113.68 650.863 111.376C652.655 109.072 653.892 106.171 654.575 102.672C655.257 99.1733 655.599 95.632 655.599 92.048C655.599 88.8907 655.343 85.6907 654.831 82.448C654.404 79.2053 653.679 76.2613 652.655 73.616C651.631 70.9707 650.223 68.8373 648.431 67.216C646.724 65.5947 644.591 64.8267 642.031 64.912C638.703 64.9973 636.057 66.192 634.095 68.496C632.217 70.8 630.852 73.7013 629.999 77.2C629.231 80.6133 628.847 84.1973 628.847 87.952C628.847 92.304 629.316 96.5707 630.255 100.752C631.193 104.933 632.687 108.389 634.735 111.12C636.868 113.765 639.684 115.045 643.183 114.96ZM715.171 124.048C709.027 124.048 703.48 122.725 698.531 120.08C693.581 117.435 689.656 113.68 686.755 108.816C683.939 103.867 682.531 98.064 682.531 91.408C682.531 84.3253 683.981 78.1387 686.883 72.848C689.869 67.472 693.795 63.3333 698.659 60.432C703.608 57.4453 708.984 55.952 714.787 55.952C720.931 55.952 726.435 57.2747 731.299 59.92C736.163 62.5653 740.003 66.3627 742.819 71.312C745.635 76.176 747.043 82.0213 747.043 88.848C747.043 96.016 745.677 102.245 742.947 107.536C740.216 112.827 736.461 116.923 731.683 119.824C726.904 122.64 721.4 124.048 715.171 124.048ZM715.683 114.96C719.096 114.875 721.656 113.68 723.363 111.376C725.155 109.072 726.392 106.171 727.075 102.672C727.757 99.1733 728.099 95.632 728.099 92.048C728.099 88.8907 727.843 85.6907 727.331 82.448C726.904 79.2053 726.179 76.2613 725.155 73.616C724.131 70.9707 722.723 68.8373 720.931 67.216C719.224 65.5947 717.091 64.8267 714.531 64.912C711.203 64.9973 708.557 66.192 706.595 68.496C704.717 70.8 703.352 73.7013 702.499 77.2C701.731 80.6133 701.347 84.1973 701.347 87.952C701.347 92.304 701.816 96.5707 702.755 100.752C703.693 104.933 705.187 108.389 707.235 111.12C709.368 113.765 712.184 115.045 715.683 114.96ZM753.763 122V113.68C756.152 113.68 757.859 113.211 758.883 112.272C759.992 111.333 760.675 110.011 760.931 108.304C761.272 106.512 761.443 104.507 761.443 102.288V49.68C761.443 48.144 761.485 46.3947 761.571 44.432C761.656 42.384 761.784 40.4213 761.955 38.544C760.589 38.6293 758.968 38.7147 757.091 38.8C755.299 38.8 753.933 38.8427 752.995 38.928V29.2C756.92 29.2 760.205 28.9867 762.851 28.56C765.581 28.1333 767.757 27.6213 769.378 27.024C771 26.4267 772.067 25.872 772.579 25.36H779.619V83.728H785.763L794.979 73.104C796.088 71.9093 796.984 70.8853 797.667 70.032C798.435 69.1787 799.203 68.4107 799.971 67.728H793.187V58H821.987V66.192C819 66.5333 816.355 67.2587 814.051 68.368C811.747 69.392 809.741 70.6293 808.035 72.08C806.413 73.5307 805.005 74.9387 803.811 76.304L795.619 85.52C796.899 86.1173 798.136 87.0133 799.331 88.208C800.611 89.3173 802.147 91.0667 803.939 93.456L812.515 104.72C813.027 105.317 813.667 106.128 814.435 107.152C815.288 108.176 816.227 109.2 817.251 110.224C818.275 111.163 819.384 111.973 820.579 112.656C821.773 113.339 823.011 113.68 824.291 113.68V122H809.571C806.84 122 804.451 121.061 802.403 119.184C800.355 117.221 798.008 114.448 795.363 110.864C793.827 108.816 792.205 106.64 790.499 104.336C788.877 101.947 787.341 99.728 785.891 97.68C784.525 95.5467 783.416 93.8827 782.562 92.688L779.619 92.816V101.392C779.619 102.587 779.576 104.293 779.491 106.512C779.405 108.645 779.277 110.693 779.107 112.656C780.472 112.485 781.965 112.4 783.587 112.4C785.208 112.315 786.488 112.272 787.427 112.272V122H753.763ZM861.251 124.048C857.581 124.048 853.997 123.579 850.499 122.64C847 121.701 844.269 120.507 842.307 119.056L842.562 122.896H832.835L832.323 100.88H840.643C840.899 103.44 841.923 105.787 843.715 107.92C845.507 110.053 847.853 111.76 850.755 113.04C853.656 114.235 856.899 114.832 860.483 114.832C861.933 114.832 863.299 114.619 864.579 114.192C865.944 113.765 867.053 113.083 867.907 112.144C868.845 111.12 869.315 109.883 869.315 108.432C869.315 106.811 868.717 105.488 867.523 104.464C866.413 103.44 864.749 102.459 862.531 101.52C860.397 100.581 857.709 99.5147 854.467 98.32C851.821 97.296 849.133 96.2293 846.403 95.12C843.757 94.0107 841.283 92.688 838.979 91.152C836.76 89.5307 834.968 87.568 833.603 85.264C832.237 82.8747 831.555 79.9733 831.555 76.56C831.555 74.0853 832.024 71.6533 832.963 69.264C833.901 66.7893 835.352 64.5707 837.315 62.608C839.277 60.56 841.752 58.9387 844.739 57.744C847.811 56.5493 851.437 55.952 855.619 55.952C857.923 55.952 860.525 56.336 863.427 57.104C866.413 57.7867 868.931 58.8533 870.979 60.304V56.592H880.707V79.248H872.387C871.875 76.2613 870.808 73.7013 869.187 71.568C867.651 69.4347 865.645 67.8133 863.171 66.704C860.696 65.5093 857.923 64.912 854.851 64.912C852.717 64.912 850.755 65.424 848.963 66.448C847.256 67.472 846.403 69.2213 846.403 71.696C846.403 73.6587 847.085 75.2373 848.451 76.432C849.816 77.5413 851.693 78.48 854.083 79.248C856.472 80.016 859.117 80.912 862.019 81.936C866.371 83.3867 870.211 85.0933 873.539 87.056C876.952 89.0187 879.64 91.408 881.603 94.224C883.565 96.9547 884.547 100.325 884.547 104.336C884.547 108.773 883.437 112.443 881.219 115.344C879 118.245 876.099 120.421 872.515 121.872C869.016 123.323 865.261 124.048 861.251 124.048Z" fill="url(#paint0_linear_316_11)"/>
</g>
<defs>
<linearGradient id="paint0_linear_316_11" x1="450" y1="0" x2="450" y2="150" gradientUnits="userSpaceOnUse">
<stop stop-color="#2E45B8"/>
<stop offset="1" stop-color="#4D62CB"/>
</linearGradient>
<clipPath id="clip0_316_11">
<rect width="900" height="150" fill="white"/>
</clipPath>
</defs>
</svg>
