<svg width="200" height="150" viewBox="0 0 200 150" fill="none" xmlns="http://www.w3.org/2000/svg">
<g clip-path="url(#clip0_276_26)">
<path d="M22.4625 122V113.552C24.4252 113.467 26.0465 113.211 27.3265 112.784C28.6918 112.357 29.7158 111.376 30.3985 109.84C31.1665 108.304 31.5505 105.829 31.5505 102.416V53.392C31.5505 51.088 31.5932 48.8693 31.6785 46.736C31.8492 44.6027 31.9772 42.9813 32.0625 41.872C30.6972 41.9573 28.9905 42.0427 26.9425 42.128C24.8945 42.128 23.4012 42.1707 22.4625 42.256V32.4C28.3505 32.3147 34.2385 32.272 40.1265 32.272C46.0998 32.272 52.0305 32.2293 57.9185 32.144C68.1585 32.0587 76.2652 33.9787 82.2385 37.904C88.2972 41.744 91.1132 47.5893 90.6865 55.44C90.5158 57.9147 89.7478 60.3467 88.3825 62.736C87.0172 65.04 84.9692 67.1307 82.2385 69.008C79.5932 70.8853 76.2652 72.3787 72.2545 73.488V73.616C80.7878 74.9813 87.0598 77.84 91.0705 82.192C95.0812 86.4587 97.0865 91.2373 97.0865 96.528C97.0865 102.075 95.7212 106.768 92.9905 110.608C90.3452 114.363 86.6758 117.221 81.9825 119.184C77.2892 121.061 71.9558 122 65.9825 122H22.4625ZM49.5985 112.912C51.1345 112.912 52.5852 112.912 53.9505 112.912C55.3158 112.912 56.6812 112.912 58.0465 112.912C59.4118 112.827 60.7345 112.784 62.0145 112.784C67.2198 112.528 71.0172 110.864 73.4065 107.792C75.7958 104.72 76.9905 100.837 76.9905 96.144C76.9905 92.2187 76.1798 89.1467 74.5585 86.928C72.9372 84.624 70.8465 83.0027 68.2865 82.064C65.8118 81.1253 63.2092 80.656 60.4785 80.656C58.3452 80.656 56.5105 80.656 54.9745 80.656C53.4385 80.656 51.8172 80.6987 50.1105 80.784V101.648C50.1105 103.952 50.0678 106.128 49.9825 108.176C49.8972 110.224 49.7692 111.803 49.5985 112.912ZM50.1105 71.696L56.7665 71.568C60.3505 71.4827 63.1665 70.672 65.2145 69.136C67.3478 67.6 68.8412 65.552 69.6945 62.992C70.6332 60.3467 71.1025 57.488 71.1025 54.416C71.1025 51.0027 70.4198 48.3573 69.0545 46.48C67.6892 44.5173 65.9825 43.1093 63.9345 42.256C61.8865 41.4027 59.7532 41.0187 57.5345 41.104C56.1692 41.104 54.9318 41.3173 53.8225 41.744C52.7132 42.1707 51.8172 43.152 51.1345 44.688C50.4518 46.1387 50.1105 48.528 50.1105 51.856V71.696ZM105.713 122V113.552C107.675 113.467 109.297 113.211 110.577 112.784C111.942 112.357 112.966 111.376 113.649 109.84C114.417 108.304 114.801 105.829 114.801 102.416V53.392C114.801 51.088 114.843 48.8693 114.929 46.736C115.099 44.6027 115.227 42.9813 115.312 41.872C113.947 41.9573 112.241 42.0427 110.193 42.128C108.145 42.128 106.651 42.1707 105.713 42.256V32.4C111.601 32.3147 117.489 32.272 123.377 32.272C129.35 32.272 135.281 32.2293 141.169 32.144C151.409 32.0587 159.515 33.9787 165.489 37.904C171.547 41.744 174.363 47.5893 173.937 55.44C173.766 57.9147 172.998 60.3467 171.632 62.736C170.267 65.04 168.219 67.1307 165.489 69.008C162.843 70.8853 159.515 72.3787 155.505 73.488V73.616C164.038 74.9813 170.31 77.84 174.321 82.192C178.331 86.4587 180.337 91.2373 180.337 96.528C180.337 102.075 178.971 106.768 176.241 110.608C173.595 114.363 169.926 117.221 165.233 119.184C160.539 121.061 155.206 122 149.233 122H105.713ZM132.849 112.912C134.385 112.912 135.835 112.912 137.201 112.912C138.566 112.912 139.931 112.912 141.297 112.912C142.662 112.827 143.985 112.784 145.265 112.784C150.47 112.528 154.267 110.864 156.657 107.792C159.046 104.72 160.241 100.837 160.241 96.144C160.241 92.2187 159.43 89.1467 157.809 86.928C156.187 84.624 154.097 83.0027 151.537 82.064C149.062 81.1253 146.459 80.656 143.729 80.656C141.595 80.656 139.761 80.656 138.225 80.656C136.689 80.656 135.067 80.6987 133.361 80.784V101.648C133.361 103.952 133.318 106.128 133.233 108.176C133.147 110.224 133.019 111.803 132.849 112.912ZM133.361 71.696L140.017 71.568C143.601 71.4827 146.417 70.672 148.465 69.136C150.598 67.6 152.091 65.552 152.945 62.992C153.883 60.3467 154.353 57.488 154.353 54.416C154.353 51.0027 153.67 48.3573 152.305 46.48C150.939 44.5173 149.233 43.1093 147.185 42.256C145.137 41.4027 143.003 41.0187 140.785 41.104C139.419 41.104 138.182 41.3173 137.073 41.744C135.963 42.1707 135.067 43.152 134.385 44.688C133.702 46.1387 133.361 48.528 133.361 51.856V71.696Z" fill="url(#paint0_radial_276_26)"/>
<rect x="3" y="3" width="194" height="144" rx="17" stroke="url(#paint1_radial_276_26)" stroke-width="6"/>
</g>
<defs>
<radialGradient id="paint0_radial_276_26" cx="0" cy="0" r="1" gradientUnits="userSpaceOnUse" gradientTransform="translate(200 1.6888e-05) rotate(143.13) scale(250 333.333)">
<stop stop-color="#F5F5F5"/>
<stop offset="1" stop-color="#E8E8E8"/>
</radialGradient>
<radialGradient id="paint1_radial_276_26" cx="0" cy="0" r="1" gradientUnits="userSpaceOnUse" gradientTransform="translate(200 8.9407e-06) rotate(143.13) scale(250 333.333)">
<stop stop-color="#F5F5F5"/>
<stop offset="1" stop-color="#E8E8E8"/>
</radialGradient>
<clipPath id="clip0_276_26">
<rect width="200" height="150" rx="20" fill="white"/>
</clipPath>
</defs>
</svg>
