<?xml version="1.0" standalone="no"?>
<!DOCTYPE svg PUBLIC "-//W3C//DTD SVG 20010904//EN"
 "http://www.w3.org/TR/2001/REC-SVG-20010904/DTD/svg10.dtd">
<svg version="1.0" xmlns="http://www.w3.org/2000/svg"
 width="839.812625pt" height="1226.213470pt" viewBox="0 0 839.812625 1226.213470"
 preserveAspectRatio="xMidYMid meet">

<g transform="translate(-579.187375,1647.833760) scale(0.100000,-0.100000)"
fill="#000000" stroke="none">
<path d="M13090 16454 c-63 -12 -144 -28 -180 -34 -212 -37 -373 -67 -640
-120 -135 -26 -285 -55 -335 -64 -49 -9 -108 -21 -130 -26 -54 -12 -171 -35
-280 -55 -49 -9 -110 -20 -135 -25 -25 -5 -83 -16 -130 -24 -47 -9 -143 -27
-215 -40 -71 -14 -193 -36 -270 -50 -77 -14 -174 -32 -215 -40 -41 -8 -102
-19 -135 -25 -87 -16 -457 -86 -690 -132 -360 -70 -566 -109 -985 -185 -93
-17 -96 -17 -385 -73 -110 -22 -240 -47 -290 -56 -49 -9 -157 -30 -240 -47
-137 -28 -211 -42 -350 -68 -27 -5 -88 -16 -135 -25 -47 -9 -112 -20 -145 -26
-107 -16 -208 -36 -329 -64 -112 -26 -120 -27 -146 -11 -35 20 -106 20 -222 1
-94 -15 -119 -25 -158 -60 -21 -19 -47 -26 -152 -40 -200 -25 -322 -75 -369
-151 -20 -33 -21 -48 -24 -382 -2 -191 -7 -2527 -10 -5192 -6 -4397 -5 -4848
10 -4883 53 -128 236 -241 497 -309 117 -31 132 -32 303 -32 141 1 205 5 295
22 63 12 178 33 255 47 77 13 178 31 225 40 47 8 112 20 145 25 33 5 103 16
155 25 52 9 122 20 155 24 33 5 89 14 125 20 133 22 378 60 485 76 61 9 121
18 135 21 14 3 50 10 80 14 80 13 231 37 337 55 51 8 121 19 155 25 35 5 106
16 158 25 52 9 120 20 150 24 72 11 360 58 430 71 30 5 100 17 155 25 55 8
127 20 160 25 286 45 321 51 485 75 58 8 130 20 160 26 52 9 111 18 260 39 36
5 110 16 165 25 55 8 132 20 170 25 39 6 93 15 120 20 57 11 254 44 395 66
153 23 608 98 695 114 46 9 165 28 310 50 33 5 103 16 155 24 52 8 142 22 200
31 105 16 144 22 340 50 270 39 319 47 370 56 85 15 127 37 144 74 14 30 16
538 16 5085 0 4306 -2 5055 -14 5078 -19 37 -44 57 -88 71 -36 12 -131 3 -297
-29 -30 -5 -79 -10 -110 -10 -32 0 -61 -4 -66 -9 -6 -4 -44 -14 -85 -20 -121
-20 -249 -39 -335 -50 -44 -6 -111 -15 -150 -20 -38 -6 -122 -17 -185 -25 -63
-9 -205 -29 -315 -45 -298 -44 -398 -58 -530 -76 -66 -9 -167 -23 -225 -31
-213 -28 -258 -34 -380 -49 -69 -9 -152 -20 -185 -25 -33 -5 -118 -16 -190
-25 -71 -9 -157 -20 -190 -25 -33 -5 -114 -17 -180 -25 -66 -9 -165 -22 -220
-31 -55 -8 -134 -19 -175 -25 -41 -6 -100 -15 -130 -20 -62 -11 -414 -61 -590
-84 -63 -9 -144 -20 -180 -25 -36 -5 -119 -16 -185 -25 -147 -19 -285 -38
-520 -70 -99 -13 -218 -29 -265 -35 -80 -10 -149 -20 -370 -55 -52 -8 -178
-26 -280 -40 -102 -14 -212 -30 -245 -35 -33 -5 -114 -17 -180 -25 -66 -9
-147 -20 -180 -25 -104 -15 -190 -21 -201 -13 -17 12 -154 297 -146 304 4 3
59 14 122 23 132 19 244 36 415 65 66 11 176 30 245 41 69 12 168 28 220 36
52 8 120 19 150 24 80 13 332 57 425 74 288 54 384 71 585 106 124 22 263 46
310 55 47 9 110 20 140 25 57 10 114 21 340 65 74 14 158 30 185 35 28 5 91
16 140 25 50 9 153 27 230 41 77 13 176 31 220 40 44 9 112 22 150 29 39 7
138 26 220 43 83 16 191 37 240 46 273 50 623 116 665 127 19 4 109 22 200 39
91 17 185 35 210 40 108 22 390 70 625 105 55 9 137 22 182 31 111 21 142 17
164 -21 10 -16 18 -46 18 -65 1 -57 23 -78 89 -85 94 -11 110 -21 143 -91 20
-42 44 -74 77 -100 26 -21 58 -48 71 -61 22 -22 41 -30 41 -18 0 3 -13 31 -30
62 -29 53 -30 61 -30 178 0 155 1 154 -117 136 -70 -10 -88 -10 -94 1 -5 7 -9
91 -9 186 0 170 0 173 -25 197 -30 31 -67 31 -225 -1z m850 -1113 c7 -14 9
-1530 8 -4843 l-3 -4823 -50 -11 c-27 -6 -88 -17 -135 -24 -47 -6 -125 -18
-175 -25 -49 -8 -137 -21 -195 -30 -58 -8 -130 -20 -160 -25 -30 -5 -102 -17
-160 -25 -205 -31 -527 -82 -660 -105 -30 -5 -102 -17 -160 -25 -154 -23 -288
-44 -345 -55 -27 -5 -97 -16 -155 -25 -58 -9 -148 -23 -200 -31 -52 -8 -126
-19 -165 -25 -38 -6 -95 -14 -125 -20 -30 -5 -100 -16 -155 -24 -55 -9 -138
-22 -185 -29 -47 -8 -121 -19 -165 -26 -44 -6 -116 -18 -160 -25 -44 -8 -125
-21 -180 -30 -55 -8 -113 -18 -130 -21 -16 -3 -100 -16 -185 -29 -85 -13 -198
-31 -250 -40 -52 -8 -124 -19 -160 -25 -36 -5 -94 -14 -130 -19 -36 -6 -99
-16 -140 -22 -41 -6 -109 -17 -150 -24 -41 -7 -111 -18 -155 -25 -44 -6 -120
-17 -170 -25 -49 -8 -139 -21 -200 -30 -60 -9 -132 -20 -160 -26 -27 -5 -111
-18 -185 -30 -74 -12 -173 -28 -220 -36 -47 -7 -112 -18 -145 -23 -33 -5 -103
-16 -155 -25 -52 -9 -124 -20 -160 -26 -36 -5 -90 -14 -120 -19 -30 -5 -125
-21 -210 -34 -464 -74 -455 -73 -466 -49 -4 10 -9 2215 -11 4900 l-2 4882 22
16 c12 8 42 15 67 15 25 0 83 6 130 14 47 8 123 19 170 25 47 5 141 17 210 26
120 15 269 36 395 55 33 5 110 16 170 25 265 37 450 64 545 80 47 7 123 19
170 25 47 6 130 18 185 26 55 8 134 19 175 25 41 6 113 17 160 25 47 7 139 20
205 29 126 16 204 28 320 46 39 6 102 14 140 19 39 5 124 16 190 25 66 9 152
20 190 25 39 4 135 18 215 29 80 11 197 27 260 36 63 8 178 25 255 36 77 11
174 24 215 29 41 5 127 16 190 24 160 23 331 46 420 56 41 5 136 18 210 29 74
11 221 31 325 46 105 14 233 32 285 40 52 8 131 19 175 24 44 6 130 17 190 26
61 8 166 21 235 30 232 29 275 35 415 55 76 11 141 23 144 25 11 12 41 3 51
-14z m-7493 -376 c40 -28 180 -276 167 -297 -14 -23 -243 5 -339 41 -95 36
-175 96 -175 131 0 45 155 121 270 133 19 2 40 5 45 5 6 1 20 -5 32 -13z
m-479 -418 c124 -85 352 -167 509 -183 35 -4 70 -12 78 -18 13 -10 15 -599 16
-4911 l1 -4900 -33 -3 c-85 -9 -321 48 -429 103 -61 31 -156 102 -208 156
l-42 44 0 4883 c1 4288 3 4882 16 4882 8 0 49 -24 92 -53z m857 -187 c3 -5 6
-2209 5 -4897 0 -4629 -1 -4889 -18 -4901 -11 -8 -40 -12 -82 -10 l-65 3 -6
1085 c-3 597 -7 2798 -8 4893 -1 3055 1 3808 11 3812 11 4 106 20 145 24 6 0
15 -3 18 -9z"/>
</g>
</svg>
