<?xml version="1.0" standalone="no"?>
<!DOCTYPE svg PUBLIC "-//W3C//DTD SVG 20010904//EN"
 "http://www.w3.org/TR/2001/REC-SVG-20010904/DTD/svg10.dtd">
<svg version="1.0" xmlns="http://www.w3.org/2000/svg"
 width="782.505591pt" height="1291.009664pt" viewBox="0 0 782.505591 1291.009664"
 preserveAspectRatio="xMidYMid meet">

<g transform="translate(-608.994409,1650.546529) scale(0.100000,-0.100000)"
fill="#000000" stroke="none">
<path d="M11430 16499 c-82 -18 -263 -60 -405 -94 -77 -19 -192 -46 -255 -60
-63 -14 -180 -42 -260 -61 -80 -19 -264 -64 -410 -99 -146 -36 -285 -69 -310
-75 -25 -5 -157 -37 -295 -70 -137 -34 -297 -72 -355 -86 -58 -14 -188 -45
-290 -70 -325 -79 -472 -113 -655 -153 -77 -17 -153 -35 -170 -40 -16 -5 -93
-24 -170 -41 -77 -17 -156 -35 -175 -40 -19 -5 -129 -32 -245 -60 -115 -27
-302 -72 -415 -99 -113 -28 -342 -82 -510 -121 -168 -39 -317 -76 -333 -82
-15 -6 -41 -26 -57 -45 l-30 -34 2 -5309 3 -5309 39 -40 c49 -51 121 -89 282
-150 71 -27 200 -78 287 -115 86 -37 188 -78 226 -92 73 -27 81 -37 81 -100 0
-16 12 -54 26 -83 34 -67 82 -99 212 -140 315 -98 386 -107 459 -57 l42 28 93
-35 c92 -35 259 -75 574 -139 226 -45 331 -44 449 7 17 7 91 35 165 63 74 28
279 104 455 171 176 66 442 166 590 221 149 56 286 107 305 115 19 8 98 37
175 65 77 28 156 57 175 65 19 8 91 34 160 59 69 25 224 82 345 127 121 44
231 85 245 89 14 5 75 26 135 48 61 22 169 61 240 87 286 103 727 266 865 320
208 82 566 213 725 267 150 51 291 117 339 159 60 53 103 142 118 244 9 61 12
1265 12 4990 l1 4910 -27 52 c-33 62 -66 96 -118 123 -85 43 -175 34 -315 -31
-67 -31 -72 -32 -130 -21 -33 6 -100 22 -150 35 -84 23 -260 62 -420 93 -72
14 -113 22 -250 49 -44 9 -113 21 -152 27 -70 11 -75 14 -110 59 -68 83 -102
101 -209 108 -115 8 -121 13 -139 122 -9 57 -63 156 -103 189 -20 17 -59 37
-86 45 -63 19 -218 27 -276 14z m329 -440 c53 -37 66 -42 147 -50 99 -11 147
-23 163 -43 19 -22 -9 -35 -110 -51 -52 -8 -125 -22 -164 -30 -38 -9 -153 -33
-255 -55 -203 -42 -226 -47 -285 -60 -22 -6 -89 -21 -150 -35 -196 -46 -239
-56 -300 -70 -33 -8 -112 -26 -175 -41 -174 -39 -226 -51 -340 -78 -58 -13
-139 -32 -180 -41 -41 -10 -122 -28 -180 -42 -118 -27 -153 -35 -260 -58 -141
-31 -205 -45 -240 -55 -19 -5 -69 -16 -110 -25 -41 -9 -138 -32 -215 -50 -77
-18 -203 -48 -280 -65 -77 -17 -194 -44 -260 -60 -66 -15 -163 -38 -215 -50
-52 -12 -196 -46 -320 -76 -124 -30 -247 -60 -275 -66 -115 -26 -282 -71 -329
-89 -58 -22 -79 -23 -104 -8 -9 6 -84 34 -167 64 -157 55 -183 75 -128 96 43
16 148 42 533 130 195 44 423 96 505 115 83 19 170 39 195 44 167 35 618 138
810 185 191 47 436 104 765 179 88 20 178 40 200 46 22 5 92 21 155 36 63 15
212 50 330 79 118 29 292 71 385 94 316 76 500 121 570 140 90 25 109 28 173
30 47 1 60 -4 111 -40z m542 -239 c30 -5 99 -16 154 -25 55 -9 138 -22 185
-31 47 -8 112 -19 145 -25 124 -21 221 -42 238 -51 28 -15 5 -33 -60 -48 -32
-7 -87 -19 -123 -27 -36 -8 -101 -23 -145 -33 -44 -11 -145 -33 -225 -50 -144
-31 -683 -160 -750 -180 -19 -6 -93 -24 -165 -41 -193 -45 -1581 -385 -1630
-399 -16 -5 -59 -16 -95 -24 -166 -39 -408 -97 -440 -106 -19 -6 -109 -28
-200 -49 -91 -22 -213 -51 -271 -65 -59 -14 -127 -26 -151 -26 -42 0 -235 25
-268 35 -8 3 -44 9 -80 14 -98 15 -568 99 -603 108 -10 3 -17 12 -15 20 2 12
30 21 98 34 126 24 186 38 480 108 69 16 168 39 220 51 143 32 301 69 435 102
99 24 1310 303 1425 328 104 23 555 130 855 203 77 19 167 40 200 47 33 7 85
18 115 26 85 20 138 31 225 49 44 9 118 27 165 39 92 26 195 32 281 16z
m-5589 -916 c73 -20 174 -49 223 -63 l90 -27 0 -5240 0 -5239 -23 -3 c-36 -5
-203 53 -338 118 l-122 59 -7 113 c-4 63 -4 2406 -1 5208 4 2802 6 5098 6
5103 0 14 40 7 172 -29z m6596 -4396 l2 -4277 -27 -15 c-16 -7 -111 -44 -213
-80 -102 -37 -201 -73 -220 -81 -39 -15 -114 -42 -305 -110 -71 -25 -152 -54
-180 -65 -239 -89 -545 -201 -695 -255 -36 -13 -92 -33 -125 -45 -33 -12 -118
-42 -190 -66 -141 -49 -250 -87 -305 -109 -19 -8 -92 -35 -162 -60 -297 -105
-389 -139 -503 -182 -143 -54 -313 -116 -410 -148 -38 -13 -122 -42 -185 -65
-255 -92 -399 -135 -410 -124 -6 6 -10 1704 -10 4463 -1 3659 1 4456 12 4466
7 7 74 26 148 44 138 32 269 66 420 106 96 26 240 64 475 125 88 23 183 48
210 55 51 15 171 47 307 84 43 12 202 53 355 92 153 38 307 79 343 89 36 11
171 46 300 79 129 33 246 63 260 67 45 11 424 114 495 134 39 10 133 35 210
55 241 63 323 85 347 95 13 5 30 8 38 7 13 -2 15 -486 18 -4279z m-5432 4122
c83 -20 445 -90 574 -110 187 -29 251 -44 260 -61 6 -10 10 -2125 10 -5325 l1
-5309 -26 -22 c-14 -13 -35 -23 -47 -23 -53 0 -350 62 -548 115 -52 14 -147
36 -210 50 -63 14 -119 30 -125 36 -12 12 -15 10623 -3 10652 9 21 16 21 114
-3z"/>
</g>
</svg>
