<svg xmlns="http://www.w3.org/2000/svg" version="1.1" xmlns:xlink="http://www.w3.org/1999/xlink" viewBox="0 0 200 200"><rect width="200" height="200" fill="url('#gradient')"></rect><defs><linearGradient id="gradient" gradientTransform="rotate(45 0.5 0.5)"><stop offset="0%" stop-color="#000022"></stop><stop offset="100%" stop-color="#211c36"></stop></linearGradient></defs><g><g fill="#faf5fa" transform="matrix(7.526337280522663,0,0,7.526337280522663,1.9295980810096864,153.51163393587618)" stroke="#a8dc9f" stroke-width="0.2"><path d="M6.85 0L1.07 0L1.07-14.22L6.18-14.22Q8.93-14.22 10.36-13.21Q11.79-12.21 11.79-10.29L11.79-10.29Q11.79-9.19 11.28-8.41Q10.77-7.63 9.79-7.26L9.79-7.26Q10.90-6.96 11.49-6.16Q12.09-5.36 12.09-4.21L12.09-4.21Q12.09-2.12 10.77-1.07Q9.44-0.02 6.85 0L6.85 0ZM6.90-6.04L4.50-6.04L4.50-2.64L6.75-2.64Q7.68-2.64 8.17-3.06Q8.67-3.49 8.67-4.26L8.67-4.26Q8.67-6.04 6.90-6.04L6.90-6.04ZM4.50-11.57L4.50-8.29L6.29-8.29Q7.41-8.30 7.89-8.70Q8.37-9.10 8.37-9.88L8.37-9.88Q8.37-10.78 7.85-11.18Q7.33-11.57 6.18-11.57L6.18-11.57L4.50-11.57ZM19.75 0L13.97 0L13.97-14.22L19.08-14.22Q21.83-14.22 23.26-13.21Q24.69-12.21 24.69-10.29L24.69-10.29Q24.69-9.19 24.18-8.41Q23.67-7.63 22.69-7.26L22.69-7.26Q23.80-6.96 24.39-6.16Q24.99-5.36 24.99-4.21L24.99-4.21Q24.99-2.12 23.67-1.07Q22.34-0.02 19.75 0L19.75 0ZM19.80-6.04L17.40-6.04L17.40-2.64L19.65-2.64Q20.58-2.64 21.07-3.06Q21.57-3.49 21.57-4.26L21.57-4.26Q21.57-6.04 19.80-6.04L19.80-6.04ZM17.40-11.57L17.40-8.29L19.19-8.29Q20.31-8.30 20.79-8.70Q21.27-9.10 21.27-9.88L21.27-9.88Q21.27-10.78 20.75-11.18Q20.23-11.57 19.08-11.57L19.08-11.57L17.40-11.57Z"></path></g></g></svg>