<?xml version="1.0" standalone="no"?>
<!DOCTYPE svg PUBLIC "-//W3C//DTD SVG 20010904//EN"
 "http://www.w3.org/TR/2001/REC-SVG-20010904/DTD/svg10.dtd">
<svg version="1.0" xmlns="http://www.w3.org/2000/svg"
 width="984.533690pt" height="1315.282692pt" viewBox="0 0 984.533690 1315.282692"
 preserveAspectRatio="xMidYMid meet">

<g transform="translate(-508.296170,1660.869933) scale(0.100000,-0.100000)"
fill="#000000" stroke="none">
<path d="M14100 16599 c-74 -5 -263 -15 -420 -24 -157 -8 -357 -20 -445 -25
-189 -12 -448 -27 -670 -40 -88 -5 -277 -16 -420 -25 -143 -8 -339 -19 -435
-25 -186 -10 -403 -23 -665 -40 -395 -26 -757 -47 -1015 -60 -113 -5 -272 -14
-355 -20 -82 -5 -278 -17 -435 -25 -380 -20 -625 -33 -855 -46 -104 -5 -280
-14 -390 -19 -550 -25 -920 -46 -1105 -61 -63 -6 -299 -12 -525 -15 -535 -6
-748 -23 -943 -75 -144 -38 -264 -119 -301 -203 -43 -95 -43 -100 -32 -443 6
-181 16 -636 22 -1013 13 -863 31 -1774 59 -2990 16 -665 44 -2148 60 -3055 5
-324 14 -810 20 -1080 5 -269 14 -877 20 -1350 6 -473 15 -891 20 -929 12 -96
58 -184 136 -262 53 -53 85 -74 196 -128 240 -115 326 -136 863 -206 50 -7
131 -18 180 -25 50 -8 144 -21 210 -30 66 -9 149 -20 185 -25 36 -6 119 -17
185 -25 222 -28 249 -32 680 -90 175 -24 274 -38 475 -66 93 -13 257 -37 330
-49 30 -5 109 -16 175 -25 66 -9 163 -22 215 -30 52 -8 181 -26 285 -40 200
-27 273 -38 420 -60 50 -8 142 -21 205 -29 372 -51 588 -82 745 -106 33 -5
107 -16 165 -25 166 -25 290 -44 355 -55 33 -6 132 -22 220 -35 364 -57 391
-62 580 -90 55 -9 141 -22 190 -30 50 -7 122 -18 160 -24 82 -12 241 -36 375
-57 52 -8 124 -19 160 -24 36 -5 112 -17 170 -27 58 -9 148 -17 200 -17 84 -1
101 2 152 27 98 48 152 121 164 224 9 78 14 93 30 93 8 0 81 33 162 74 161 82
234 139 276 218 30 56 37 90 45 222 l6 101 73 6 c87 8 124 32 164 106 35 64
43 145 28 303 -6 69 -14 157 -17 197 l-6 72 34 15 c19 8 78 31 132 51 150 56
222 125 280 267 l22 53 6 1530 c16 3952 31 9170 27 9255 -4 71 -10 106 -26
137 -45 87 -132 162 -219 188 -54 17 -345 18 -583 4z m544 -319 c20 -33 21
-58 29 -470 5 -239 6 -1033 2 -1765 -35 -7558 -41 -8453 -55 -8514 -10 -43
-23 -66 -60 -105 -54 -57 -173 -127 -188 -111 -11 11 1 4447 18 6685 6 789 11
1602 11 1805 0 204 4 442 8 530 14 253 56 614 97 830 39 204 38 226 -14 317
-29 50 -31 61 -40 218 -10 178 -20 216 -61 228 -38 10 -445 9 -1146 -5 -341
-7 -903 -17 -1250 -23 -346 -6 -847 -15 -1113 -20 -266 -6 -1250 -11 -2187
-13 -1382 -2 -1706 0 -1717 11 -10 10 -10 14 0 21 7 4 120 11 250 15 130 3
350 13 487 21 138 8 331 19 430 24 99 6 205 13 235 16 30 3 141 10 245 15 105
6 300 17 435 25 135 9 317 20 405 25 88 6 295 17 460 25 460 23 777 40 1270
70 314 20 521 32 850 50 149 8 304 17 345 20 71 5 380 23 775 45 94 5 274 17
400 25 127 8 320 20 430 25 110 6 214 12 230 14 17 2 113 3 214 2 l185 -1 20
-35z m-7922 -416 c71 -34 73 -76 5 -128 -46 -35 -79 -46 -192 -63 -264 -39
-703 -4 -962 79 -121 38 -100 67 67 91 58 9 168 21 245 27 77 6 158 12 180 14
22 2 168 3 325 2 269 -1 288 -2 332 -22z m7597 -19 c37 -19 51 -74 51 -198 0
-59 6 -113 16 -144 14 -45 14 -53 0 -86 -10 -25 -21 -37 -34 -37 -28 0 -39 18
-58 91 -21 84 -50 135 -93 161 -51 32 -142 34 -2771 68 -410 5 -875 14 -1035
20 -159 5 -445 10 -635 10 -190 0 -428 5 -530 10 -246 13 -626 30 -832 37
-103 4 -168 10 -168 16 0 7 172 8 523 3 950 -14 1574 -8 2797 24 212 5 716 13
1120 16 404 4 809 10 900 14 91 3 290 7 443 8 227 2 283 -1 306 -13z m-6594
-85 c143 -5 289 -13 325 -19 190 -30 963 -61 1555 -61 375 0 1274 -20 1845
-40 300 -11 701 -22 1410 -40 653 -17 1240 -48 1279 -69 25 -14 55 -75 47 -97
-7 -18 31 -19 -543 3 -114 4 -173 3 -173 -4 0 -6 39 -13 88 -17 48 -3 121 -10
162 -16 41 -5 121 -9 176 -10 116 0 293 -16 328 -30 21 -8 25 -19 36 -97 13
-89 10 -179 -20 -713 -10 -177 -17 -1345 -24 -4070 -5 -1962 6 -4385 25 -5217
11 -532 11 -573 -5 -597 -10 -16 -26 -26 -41 -26 -14 0 -25 1 -26 3 0 1 -2
245 -5 542 -2 297 -9 979 -14 1515 -6 536 -13 1763 -16 2725 -12 3710 -23
5292 -38 5415 -14 119 -42 218 -80 286 -26 47 -99 98 -163 114 -27 7 -181 16
-343 20 -301 9 -665 25 -755 35 -45 5 -210 16 -685 45 -355 22 -598 42 -780
65 -167 20 -314 34 -490 45 -209 13 -398 28 -435 35 -16 3 -82 9 -145 15 -63
5 -164 14 -225 20 -60 5 -200 14 -310 20 -323 16 -722 51 -1040 90 -387 48
-808 83 -1220 100 -126 6 -264 15 -305 20 -41 5 -78 9 -82 10 -5 0 -8 5 -8 11
0 12 15 12 695 -11z m-140 -126 c614 -28 904 -50 1425 -104 291 -30 310 -31
835 -60 99 -6 266 -17 370 -26 105 -8 255 -19 335 -24 293 -19 459 -31 640
-46 186 -15 255 -21 515 -48 174 -19 351 -34 475 -41 217 -13 473 -34 865 -71
223 -21 422 -32 592 -35 76 -1 154 -6 173 -11 145 -42 181 -92 200 -283 42
-407 51 -1003 60 -3990 4 -1397 12 -2916 19 -3375 14 -1080 34 -2834 33 -2883
-2 -42 -67 -160 -86 -154 -18 6 -23 237 -25 1122 -1 457 -6 1046 -12 1310 -5
264 -12 1337 -14 2385 -4 1959 -21 4669 -30 5050 -9 332 -29 512 -70 630 -29
84 -103 180 -138 180 -16 0 -18 -5 -13 -26 6 -24 5 -26 -16 -19 -37 11 -61 11
-65 -1 -2 -6 22 -16 54 -24 32 -7 66 -20 77 -29 33 -28 65 -107 76 -187 8 -50
15 -401 20 -949 5 -478 13 -1286 19 -1795 6 -509 15 -1841 21 -2960 5 -1119
14 -2233 20 -2475 5 -242 12 -887 15 -1433 5 -895 4 -996 -11 -1025 -27 -56
-233 -213 -269 -205 -14 3 -16 61 -21 523 -2 286 -9 734 -15 995 -5 261 -14
853 -19 1315 -5 462 -14 1108 -19 1435 -6 327 -15 888 -21 1245 -5 358 -15
938 -20 1290 -15 935 -29 1943 -40 2925 l-10 864 25 26 c80 84 70 258 -19 324
-44 33 -139 53 -311 66 -82 6 -193 15 -245 21 -52 5 -151 14 -220 19 -69 5
-195 17 -280 25 -85 8 -204 20 -265 25 -60 5 -159 14 -220 20 -60 5 -166 15
-235 20 -69 6 -199 17 -290 25 -207 18 -390 33 -500 40 -47 3 -128 10 -180 15
-52 5 -176 17 -275 25 -99 9 -225 20 -280 25 -55 5 -183 17 -285 25 -249 21
-496 44 -605 55 -95 10 -344 33 -555 50 -69 6 -170 16 -225 21 -55 6 -149 15
-210 20 -60 5 -180 16 -265 24 -85 9 -204 20 -265 25 -60 5 -153 13 -205 19
-52 5 -149 15 -215 20 -224 20 -460 42 -482 47 -30 6 -30 32 0 44 25 10 239 5
682 -16z m-2177 -114 c136 -52 286 -88 499 -119 145 -22 171 -31 177 -64 3
-12 7 -348 10 -747 6 -714 16 -1376 37 -2432 6 -296 14 -854 19 -1240 6 -387
16 -1182 25 -1768 8 -586 19 -1495 24 -2020 6 -525 13 -1029 15 -1120 11 -337
9 -1221 -2 -1232 -8 -8 -21 -8 -49 0 -21 6 -74 20 -118 31 -182 45 -244 68
-350 130 -87 50 -142 93 -154 119 -20 43 -32 629 -71 3407 -11 834 -27 1733
-61 3535 -10 543 -19 1059 -39 2170 -5 322 -15 757 -21 967 -9 328 -8 403 4
403 1 0 26 -9 55 -20z m942 -150 c36 -4 119 -14 185 -20 66 -6 158 -16 205
-21 47 -5 137 -13 200 -19 63 -5 192 -16 285 -25 94 -9 226 -20 295 -25 69 -6
202 -17 295 -25 94 -9 224 -20 290 -25 66 -5 136 -12 155 -15 19 -3 89 -9 155
-15 66 -5 199 -17 295 -25 96 -9 225 -20 285 -25 61 -5 182 -16 270 -25 88 -8
212 -19 275 -25 63 -5 135 -12 160 -15 25 -3 95 -10 155 -15 61 -5 180 -16
265 -25 85 -9 200 -20 255 -25 55 -5 170 -16 255 -25 85 -8 205 -19 265 -25
61 -5 126 -12 145 -15 19 -3 89 -10 155 -15 66 -5 201 -16 300 -25 198 -17
334 -29 530 -44 72 -6 177 -15 235 -21 98 -9 282 -24 625 -51 77 -6 154 -12
172 -15 40 -6 101 -74 170 -189 l50 -83 6 -314 c4 -172 11 -682 17 -1133 5
-451 14 -1043 20 -1315 5 -272 12 -677 15 -900 3 -223 10 -625 15 -895 12
-587 27 -1461 40 -2280 6 -330 15 -805 20 -1055 5 -250 14 -716 20 -1035 5
-319 15 -842 21 -1162 10 -534 9 -584 -6 -616 -31 -67 -47 -68 -355 -15 -138
23 -282 46 -370 58 -36 5 -121 18 -190 30 -275 46 -626 101 -900 140 -41 6
-102 15 -135 21 -77 12 -390 58 -475 69 -36 5 -112 16 -170 25 -58 8 -136 19
-175 25 -66 9 -121 17 -370 55 -55 9 -129 20 -165 25 -36 5 -110 16 -165 25
-55 8 -131 20 -170 25 -38 5 -113 16 -165 24 -174 27 -644 96 -755 111 -109
15 -150 21 -360 50 -172 24 -254 35 -340 45 -44 6 -109 15 -145 20 -36 5 -119
17 -185 25 -66 9 -151 20 -190 25 -38 6 -122 17 -185 25 -63 9 -162 22 -220
31 -58 8 -136 19 -175 24 -100 14 -280 39 -350 50 -33 5 -118 17 -190 25 -71
9 -141 20 -155 23 l-25 7 -7 340 c-8 409 -24 1452 -58 3950 -24 1727 -30 2110
-39 2725 -6 360 -16 948 -22 1305 -5 358 -14 853 -19 1100 -28 1311 -31 1224
34 1211 17 -4 60 -11 96 -16z"/>
<path d="M13050 15460 c0 -5 11 -10 25 -10 14 0 25 5 25 10 0 6 -11 10 -25 10
-14 0 -25 -4 -25 -10z"/>
<path d="M13480 15090 c0 -5 18 -10 40 -10 22 0 40 5 40 10 0 6 -18 10 -40 10
-22 0 -40 -4 -40 -10z"/>
</g>
</svg>
